<svg id="Group_2126" data-name="Group 2126" xmlns="http://www.w3.org/2000/svg" width="25.506" height="16.566" viewBox="0 0 25.506 16.566">
  <path id="Path_6275" data-name="Path 6275" d="M227.4,287l.024.055h3.467l.024-.055Z" transform="translate(-216.381 -276.605)" fill="#517e23"/>
  <path id="Path_6276" data-name="Path 6276" d="M69.36,121.6v-.1a6.007,6.007,0,0,0-6-6h-9.7a6.012,6.012,0,0,0-6.007,6v.055a2.2,2.2,0,0,0,0,4.388v.121a6.008,6.008,0,0,0,6.007,6h9.7a6.007,6.007,0,0,0,6-6v-.17a2.2,2.2,0,0,0,0-4.3Zm-20.324-.1a4.618,4.618,0,0,1,4.619-4.619h9.7a4.618,4.618,0,0,1,4.619,4.619v.048H49.037Zm18.942,4.564a4.618,4.618,0,0,1-4.619,4.619h-9.7a4.617,4.617,0,0,1-4.619-4.619v-.115h6.134a1.221,1.221,0,0,0,.121.382l.861,1.74a1.257,1.257,0,0,0,1.127.7h2.231a1.268,1.268,0,0,0,1.14-.721l.824-1.74a1.321,1.321,0,0,0,.109-.364h6.395v.115ZM56.62,125.9h3.522l-.024.055-.685,1.443H57.359l-.715-1.443ZM69.36,124.41a.777.777,0,0,1-.455.139H47.8a1.178,1.178,0,0,1-.145-.012.8.8,0,0,1,0-1.582.59.59,0,0,1,.145-.012H68.912a.822.822,0,0,1,.455.139.8.8,0,0,1,.352.667A.823.823,0,0,1,69.36,124.41Z" transform="translate(-45.6 -115.5)" fill="#517e23"/>
</svg>
